<svg width="69" height="25" viewBox="0 0 69 25" fill="none" xmlns="http://www.w3.org/2000/svg">
<path d="M10.065 24.962C7.755 24.962 5.819 24.456 4.257 23.444C2.695 22.41 1.584 21.024 0.924 19.286L5.643 16.514C6.061 17.526 6.633 18.274 7.359 18.758C8.085 19.22 9.031 19.451 10.197 19.451C11.033 19.451 11.693 19.264 12.177 18.89C12.661 18.494 12.903 18.065 12.903 17.603C12.903 17.229 12.793 16.921 12.573 16.679C12.353 16.437 11.946 16.195 11.352 15.953C10.78 15.689 9.911 15.392 8.745 15.062C6.677 14.468 5.016 13.621 3.762 12.521C2.508 11.421 1.881 9.87 1.881 7.868C1.881 6.46 2.233 5.239 2.937 4.205C3.641 3.149 4.576 2.346 5.742 1.796C6.93 1.224 8.195 0.937998 9.537 0.937998C11.429 0.937998 13.079 1.389 14.487 2.291C15.917 3.171 17.039 4.447 17.853 6.119L13.035 8.924C12.639 8.066 12.155 7.45 11.583 7.076C11.033 6.702 10.351 6.515 9.537 6.515C9.009 6.515 8.536 6.647 8.118 6.911C7.7 7.175 7.491 7.494 7.491 7.868C7.491 8.198 7.568 8.484 7.722 8.726C7.876 8.946 8.206 9.188 8.712 9.452C9.24 9.694 10.021 9.98 11.055 10.31C13.299 10.992 15.103 11.905 16.467 13.049C17.831 14.171 18.513 15.799 18.513 17.933C18.513 19.363 18.139 20.606 17.391 21.662C16.665 22.718 15.653 23.532 14.355 24.104C13.079 24.676 11.649 24.962 10.065 24.962ZM34.6825 13.148V1.4H40.3255V24.5H35.6065L27.1585 11.3V24.5H21.5485V1.4H27.1585L34.6825 13.148ZM62.445 1.433V1.4H68.055V24.5H62.445V11.696L57.066 20.705H55.68L50.301 11.696V24.5H44.691V1.4H50.301V1.433L50.334 1.4L56.373 11.498L62.412 1.4L62.445 1.433Z" fill="black" fill-opacity="0.85"/>
</svg>
