<svg width="29" height="29" viewBox="0 0 29 29" fill="none" xmlns="http://www.w3.org/2000/svg">
<path d="M3.36615 14.2475C3.39852 12.8331 3.68981 11.4608 4.2368 10.1694C4.79673 8.84241 5.59941 7.65458 6.62218 6.62857C7.64495 5.60257 8.83602 4.79989 10.163 4.23996C11.5353 3.6606 12.9918 3.36607 14.4968 3.36607C16.0019 3.36607 17.4583 3.6606 18.8274 4.23996C20.1506 4.79874 21.3522 5.61007 22.365 6.62857C22.6855 6.949 22.9865 7.28884 23.2648 7.64487L21.3164 9.16607C21.2778 9.1959 21.2485 9.23599 21.2317 9.28176C21.2149 9.32752 21.2114 9.37709 21.2215 9.42476C21.2317 9.47243 21.2551 9.51627 21.289 9.55124C21.323 9.58621 21.3661 9.61089 21.4135 9.62243L27.1002 11.0142C27.262 11.053 27.4206 10.93 27.4206 10.765L27.4465 4.90993C27.4465 4.69308 27.1973 4.57009 27.029 4.70603L25.2035 6.13337C22.7146 2.94855 18.8436 0.90625 14.4936 0.90625C7.07854 0.90625 1.04551 6.84866 0.906331 14.2346C0.905467 14.2691 0.911526 14.3035 0.924151 14.3357C0.936776 14.3678 0.955712 14.3972 0.979842 14.4219C1.00397 14.4466 1.03281 14.4663 1.06465 14.4797C1.0965 14.4931 1.1307 14.5 1.16526 14.5H3.10722C3.24963 14.5 3.36292 14.3867 3.36615 14.2475ZM27.8349 14.5H25.8929C25.7505 14.5 25.6372 14.6133 25.634 14.7525C25.6016 16.1669 25.3103 17.5392 24.7634 18.8306C24.2034 20.1576 23.4008 21.3487 22.378 22.3714C21.3457 23.408 20.1183 24.23 18.7668 24.7899C17.4153 25.3499 15.9663 25.6367 14.5033 25.6339C13.0409 25.6367 11.5924 25.3498 10.2414 24.7898C8.89035 24.2299 7.6636 23.4079 6.63189 22.3714C6.31146 22.051 6.01046 21.7112 5.73211 21.3551L7.68055 19.8339C7.7191 19.8041 7.74845 19.764 7.76523 19.7182C7.782 19.6725 7.78552 19.6229 7.77538 19.5752C7.76524 19.5276 7.74184 19.4837 7.70789 19.4488C7.67394 19.4138 7.6308 19.3891 7.58345 19.3776L1.89673 17.9858C1.7349 17.947 1.57631 18.07 1.57631 18.235L1.55365 24.0933C1.55365 24.3102 1.80287 24.4331 1.97117 24.2972L3.79662 22.8699C6.28557 26.0515 10.1566 28.0938 14.5066 28.0938C21.9249 28.0938 27.9547 22.1481 28.0938 14.7654C28.0947 14.7309 28.0886 14.6965 28.076 14.6643C28.0634 14.6322 28.0444 14.6028 28.0203 14.5781C27.9962 14.5534 27.9674 14.5337 27.9355 14.5203C27.9037 14.5069 27.8695 14.5 27.8349 14.5Z" fill="#4ECB73"/>
</svg>
