<svg width="39" height="14" viewBox="0 0 39 14" fill="none" xmlns="http://www.w3.org/2000/svg">
<path d="M7.80469 9.65137C7.80469 9.42285 7.76953 9.21777 7.69922 9.03613C7.63477 8.84863 7.51172 8.67871 7.33008 8.52637C7.14844 8.36816 6.89355 8.21289 6.56543 8.06055C6.2373 7.9082 5.8125 7.75 5.29102 7.58594C4.71094 7.39844 4.16016 7.1875 3.63867 6.95312C3.12305 6.71875 2.66602 6.44629 2.26758 6.13574C1.875 5.81934 1.56445 5.45312 1.33594 5.03711C1.11328 4.62109 1.00195 4.1377 1.00195 3.58691C1.00195 3.05371 1.11914 2.57031 1.35352 2.13672C1.58789 1.69727 1.91602 1.32227 2.33789 1.01172C2.75977 0.695312 3.25781 0.452148 3.83203 0.282227C4.41211 0.112305 5.04785 0.0273438 5.73926 0.0273438C6.68262 0.0273438 7.50586 0.197266 8.20898 0.537109C8.91211 0.876953 9.45703 1.34277 9.84375 1.93457C10.2363 2.52637 10.4326 3.20312 10.4326 3.96484H7.81348C7.81348 3.58984 7.73438 3.26172 7.57617 2.98047C7.42383 2.69336 7.18945 2.46777 6.87305 2.30371C6.5625 2.13965 6.16992 2.05762 5.69531 2.05762C5.23828 2.05762 4.85742 2.12793 4.55273 2.26855C4.24805 2.40332 4.01953 2.58789 3.86719 2.82227C3.71484 3.05078 3.63867 3.30859 3.63867 3.5957C3.63867 3.8125 3.69141 4.00879 3.79688 4.18457C3.9082 4.36035 4.07227 4.52441 4.28906 4.67676C4.50586 4.8291 4.77246 4.97266 5.08887 5.10742C5.40527 5.24219 5.77148 5.37402 6.1875 5.50293C6.88477 5.71387 7.49707 5.95117 8.02441 6.21484C8.55762 6.47852 9.00293 6.77441 9.36035 7.10254C9.71777 7.43066 9.9873 7.80273 10.1689 8.21875C10.3506 8.63477 10.4414 9.10645 10.4414 9.63379C10.4414 10.1904 10.333 10.6885 10.1162 11.1279C9.89941 11.5674 9.58594 11.9395 9.17578 12.2441C8.76562 12.5488 8.27637 12.7803 7.70801 12.9385C7.13965 13.0967 6.50391 13.1758 5.80078 13.1758C5.16797 13.1758 4.54395 13.0938 3.92871 12.9297C3.31348 12.7598 2.75391 12.5049 2.25 12.165C1.75195 11.8252 1.35352 11.3916 1.05469 10.8643C0.755859 10.3369 0.606445 9.71289 0.606445 8.99219H3.25195C3.25195 9.39062 3.31348 9.72754 3.43652 10.0029C3.55957 10.2783 3.73242 10.501 3.95508 10.6709C4.18359 10.8408 4.45312 10.9639 4.76367 11.04C5.08008 11.1162 5.42578 11.1543 5.80078 11.1543C6.25781 11.1543 6.63281 11.0898 6.92578 10.9609C7.22461 10.832 7.44434 10.6533 7.58496 10.4248C7.73145 10.1963 7.80469 9.93848 7.80469 9.65137ZM22.6494 0.203125V13H20.0127L14.8711 4.42188V13H12.2344V0.203125H14.8711L20.0215 8.79004V0.203125H22.6494ZM26.1475 0.203125H28.3799L31.667 9.59863L34.9541 0.203125H37.1865L32.5635 13H30.7705L26.1475 0.203125ZM24.9434 0.203125H27.167L27.5713 9.36133V13H24.9434V0.203125ZM36.167 0.203125H38.3994V13H35.7627V9.36133L36.167 0.203125Z" fill="white"/>
</svg>
